<svg viewBox="0 0 1280 720" width="1280px" height="720px" xmlns="http://www.w3.org/2000/svg"
     xmlns:xlink="http://www.w3.org/1999/xlink">
    <g fill="current" transform="matrix(2.757771, 0, 0, 1.998163, 91.010521, 533.955017)" style="">
        <path d="M3.93 0L21.33 0L21.33 -44.53L30.24 0L47.63 0L47.63 -88.95L30.44 -88.95L30.44 -46.39L22.26 -88.95L3.93 -88.95Z M73.83 0L91.12 0L92.16 -14.39L102.93 -14.39L104.17 0L121.05 0L112.56 -88.95L82.43 -88.95ZM93.51 -28.58L96.82 -73.83L97.65 -73.83L101.58 -28.58Z M147.14 0L164.85 0L164.85 -43.08L174.58 0L193.02 0L181.01 -48.25L190.95 -88.95L173.03 -88.95L164.75 -53.33L164.75 -88.95L147.14 -88.95Z M214.35 0L231.64 0L232.68 -14.39L243.45 -14.39L244.69 0L261.57 0L253.08 -88.95L222.94 -88.95ZM234.02 -28.58L237.34 -73.83L238.16 -73.83L242.1 -28.58Z M295.32 0L313.13 0L313.13 -71.86L323.7 -71.86L323.7 -88.95L284.76 -88.95L284.76 -71.86L295.32 -71.86Z M347 0L364.29 0L365.32 -14.39L376.09 -14.39L377.34 0L394.21 0L385.72 -88.95L355.59 -88.95ZM366.67 -28.58L369.98 -73.83L370.81 -73.83L374.75 -28.58Z"></path>
    </g>
    <g fill="#0db92b" transform="matrix(3.206972, 0, 0, 3.206972, 479.651367, 45.393963)" style="">
        <path fill="none" d="M5 5h90v90H5z"></path>
        <path d="M44.113 32.5L27.989 18.025 46.624 30.78c-1.923-4.793-9.241-18.931-28.486-18.176 0 0 2.042 18.854 25.975 19.896zm10.749-8c17.634-.767 20-16.083 20-16.083-14.181-.557-20.349 10.869-21.767 14.401L68.78 12.167 54.862 24.5z"></path>
        <path d="M53.18 53.667L50.862 5.259l-2.316 48.408H5.167v3.167H95v-3.167zm-17.013 5.36H67v2.621H36.167zm15.501 21.464h25.999v2.622H51.668zm-39.085-8.657h49.178v2.622H12.583zm-5.916-7.013h33.811v2.622H6.667zm56.634 0h29.865v2.622H63.301zm-18.973 0h10.895v2.622H44.328zm-17.495 15.67h11.499v2.622H26.833zm50.513-8.587h11.737v2.622H77.346zM5.334 59.027h17.333v2.621H5.334zm70.999 0h18.666v2.621H76.333z"></path>
    </g>
    <g fill="#121212" transform="matrix(2.792575, 0, 0, 2.792575, 91.649971, 657.733398)" style="">
        <path d="M16.11 -23.41C14.02 -24.29 12 -24.72 10.04 -24.71C7.45 -24.71 5.41 -24.11 3.94 -22.9C2.46 -21.7 1.72 -20.02 1.72 -17.85C1.72 -16.07 2.2 -14.66 3.15 -13.62C4.11 -12.57 5.69 -11.75 7.9 -11.16C9.35 -10.76 10.47 -10.37 11.27 -9.96C12.06 -9.56 12.62 -9.1 12.94 -8.6C13.27 -8.09 13.43 -7.46 13.43 -6.69C13.43 -5.5 13 -4.56 12.13 -3.87C11.27 -3.18 10.09 -2.83 8.6 -2.83C7.65 -2.83 6.73 -2.95 5.83 -3.18C4.93 -3.41 3.72 -3.82 2.21 -4.42L1.21 -1.42C3.92 -0.27 6.38 0.3 8.6 0.3C11.17 0.3 13.19 -0.32 14.66 -1.57C16.13 -2.81 16.87 -4.53 16.87 -6.72C16.87 -8.63 16.37 -10.15 15.37 -11.27C14.37 -12.38 12.69 -13.29 10.31 -13.97C8.99 -14.37 7.96 -14.76 7.21 -15.15C6.47 -15.54 5.95 -15.99 5.64 -16.47C5.33 -16.96 5.17 -17.58 5.17 -18.32C5.17 -19.34 5.61 -20.14 6.47 -20.71C7.34 -21.29 8.51 -21.57 9.98 -21.57C11.43 -21.57 13.2 -21.17 15.29 -20.36Z M32.48 -24.3L32.48 -20.98L35.72 -20.98L35.72 -24.3ZM32.48 -17.75L32.48 0L35.72 0L35.72 -17.75Z M58.81 0.2C59.95 0.2 61.19 -0.06 62.53 -0.59L61.92 -3.13C61.05 -2.84 60.21 -2.7 59.4 -2.7C58.48 -2.7 57.81 -2.92 57.42 -3.35C57.02 -3.79 56.82 -4.52 56.82 -5.53L56.82 -14.95L62.23 -14.95L62.23 -17.75L56.82 -17.75L56.82 -22.82L54.42 -22.82L53.73 -17.75L50.46 -17.75L50.46 -14.95L53.57 -14.95L53.57 -5.01C53.57 -3.3 54.01 -2 54.9 -1.12C55.8 -0.24 57.1 0.2 58.81 0.2Z M77.58 -24.3L77.58 -20.98L80.82 -20.98L80.82 -24.3ZM77.58 -17.75L77.58 0L80.82 0L80.82 -17.75Z M111.19 -15.67C109.72 -17.28 107.65 -18.08 104.99 -18.08C102.32 -18.08 100.24 -17.28 98.77 -15.67C97.3 -14.05 96.56 -11.8 96.56 -8.9C96.56 -6 97.3 -3.75 98.77 -2.14C100.24 -0.53 102.32 0.27 104.99 0.27C107.65 0.27 109.72 -0.53 111.19 -2.14C112.66 -3.75 113.4 -6 113.4 -8.9C113.4 -11.8 112.66 -14.05 111.19 -15.67ZM101.19 -13.6C102.06 -14.68 103.33 -15.22 104.99 -15.22C106.64 -15.22 107.91 -14.68 108.78 -13.59C109.66 -12.51 110.1 -10.94 110.1 -8.9C110.1 -6.85 109.66 -5.29 108.78 -4.21C107.91 -3.13 106.64 -2.6 104.99 -2.6C103.33 -2.6 102.06 -3.13 101.19 -4.21C100.32 -5.29 99.88 -6.85 99.88 -8.9C99.88 -10.95 100.32 -12.52 101.19 -13.6Z M165.38 -24.44L165.38 -14.16L152.89 -14.16L152.89 -24.44L149.57 -24.44L149.57 0L152.89 0L152.89 -11.22L165.38 -11.22L165.38 0L168.7 0L168.7 -24.44Z M199.44 -15.67C197.97 -17.28 195.9 -18.08 193.24 -18.08C190.57 -18.08 188.49 -17.28 187.02 -15.67C185.55 -14.05 184.81 -11.8 184.81 -8.9C184.81 -6 185.55 -3.75 187.02 -2.14C188.49 -0.53 190.57 0.27 193.24 0.27C195.9 0.27 197.97 -0.53 199.44 -2.14C200.92 -3.75 201.65 -6 201.65 -8.9C201.65 -11.8 200.92 -14.05 199.44 -15.67ZM189.44 -13.6C190.31 -14.68 191.58 -15.22 193.24 -15.22C194.89 -15.22 196.16 -14.68 197.03 -13.59C197.91 -12.51 198.35 -10.94 198.35 -8.9C198.35 -6.85 197.91 -5.29 197.03 -4.21C196.16 -3.13 194.89 -2.6 193.24 -2.6C191.58 -2.6 190.31 -3.13 189.44 -4.21C188.57 -5.29 188.13 -6.85 188.13 -8.9C188.13 -10.95 188.57 -12.52 189.44 -13.6Z M222.57 -17.34C221.74 -16.87 221.01 -16.17 220.39 -15.25L219.99 -17.75L217.39 -17.75L217.39 0L220.63 0L220.63 -12.49C221.09 -13.32 221.64 -13.92 222.29 -14.29C222.94 -14.66 223.75 -14.85 224.74 -14.85C225.14 -14.84 225.89 -14.72 227.02 -14.49L227.61 -17.68C226.73 -17.93 225.96 -18.05 225.3 -18.05C224.31 -18.05 223.4 -17.81 222.57 -17.34Z M241.97 -24.3L241.97 -20.98L245.21 -20.98L245.21 -24.3ZM241.97 -17.75L241.97 0L245.21 0L245.21 -17.75Z M273.76 -17.75L260.98 -17.75L260.98 -14.88L269.61 -14.88L260.49 -2.31L260.49 0L274.13 0L274.13 -2.87L264.57 -2.87L273.76 -15.54Z M302.63 -15.67C301.16 -17.28 299.09 -18.08 296.43 -18.08C293.75 -18.08 291.68 -17.28 290.21 -15.67C288.74 -14.05 288 -11.8 288 -8.9C288 -6 288.74 -3.75 290.21 -2.14C291.68 -0.53 293.75 0.27 296.43 0.27C299.09 0.27 301.16 -0.53 302.63 -2.14C304.1 -3.75 304.84 -6 304.84 -8.9C304.84 -11.8 304.1 -14.05 302.63 -15.67ZM292.63 -13.6C293.5 -14.68 294.76 -15.22 296.43 -15.22C298.08 -15.22 299.34 -14.68 300.22 -13.59C301.1 -12.51 301.53 -10.94 301.53 -8.9C301.53 -6.85 301.1 -5.29 300.22 -4.21C299.34 -3.13 298.08 -2.6 296.43 -2.6C294.76 -2.6 293.5 -3.13 292.63 -4.21C291.76 -5.29 291.32 -6.85 291.32 -8.9C291.32 -10.95 291.76 -12.52 292.63 -13.6Z M326.4 -17.36C325.37 -16.9 324.44 -16.2 323.58 -15.25L323.21 -17.75L320.58 -17.75L320.58 0L323.82 0L323.82 -12.52C324.38 -13.35 325.12 -14.01 326.04 -14.48C326.96 -14.95 327.95 -15.19 329.01 -15.19C330.2 -15.19 331.06 -14.89 331.6 -14.29C332.14 -13.7 332.41 -12.74 332.41 -11.43L332.41 0L335.67 0L335.67 -11.66C335.67 -13.74 335.17 -15.33 334.17 -16.42C333.17 -17.51 331.72 -18.05 329.83 -18.05C328.56 -18.05 327.42 -17.82 326.4 -17.36Z M358.37 0.2C359.52 0.2 360.76 -0.06 362.09 -0.59L361.49 -3.13C360.61 -2.84 359.77 -2.7 358.96 -2.7C358.04 -2.7 357.38 -2.92 356.98 -3.35C356.58 -3.79 356.38 -4.52 356.38 -5.53L356.38 -14.95L361.79 -14.95L361.79 -17.75L356.38 -17.75L356.38 -22.82L353.99 -22.82L353.3 -17.75L350.03 -17.75L350.03 -14.95L353.13 -14.95L353.13 -5.01C353.13 -3.3 353.57 -2 354.47 -1.12C355.36 -0.24 356.66 0.2 358.37 0.2Z M380.6 -4.06C379.7 -5.04 379.21 -6.45 379.12 -8.29L391.51 -8.29L391.51 -9.02C391.51 -12.05 390.9 -14.31 389.68 -15.81C388.46 -17.3 386.61 -18.05 384.12 -18.05C381.47 -18.05 379.42 -17.25 377.97 -15.65C376.52 -14.05 375.8 -11.8 375.8 -8.9C375.8 -6 376.53 -3.75 378.01 -2.14C379.48 -0.53 381.55 0.27 384.22 0.27C385.3 0.27 386.38 0.13 387.44 -0.14C388.51 -0.42 389.66 -0.85 390.88 -1.45L389.85 -3.86C388.79 -3.4 387.83 -3.07 387 -2.88C386.16 -2.69 385.29 -2.6 384.39 -2.6C382.76 -2.6 381.5 -3.08 380.6 -4.06ZM386.98 -14.13C387.67 -13.43 388.06 -12.39 388.15 -11.01L379.29 -11.01C379.81 -13.79 381.43 -15.19 384.12 -15.19C385.34 -15.19 386.29 -14.83 386.98 -14.13Z"
              style="paint-order: stroke; fill: rgb(0, 0, 0); stroke-linecap: round; stroke: rgb(0, 0, 0); stroke-width: 1.43105px;"></path>
    </g>
</svg>